# xmcd
#
# Track frame offsets: 
#        150
#        18402
#        39125
#        58937
#        74937
#        93787
#        117415
#        140277
#        163597
#
# Disc length: 2475 seconds
#
# Revision: 10
# Processed by: cddbd v1.5.2PL0 Copyright (c) Steve Scherf et al.
# Submitted via: ExactAudioCopy v0.95b4
#
DISCID=7909a909
DTITLE=Talking Heads - Speaking In Tongues [1990 EU]
DYEAR=1983
DGENRE=Rock
TTITLE0=Burning Down The House
TTITLE1=Making Flippy Floppy
TTITLE2=Girlfriend Is Better
TTITLE3=Slippery People
TTITLE4=I Get Wild/Wild Gravity
TTITLE5=Swamp
TTITLE6=Moon Rocks
TTITLE7=Pull Up The Roots
TTITLE8=This Must Be The Place (Naive Melody)
EXTD=1983 Sire Records\nAll music by D. Byrne, C. Frantz, J. Harrison,
EXTD=and \nT. Weymouth - lyrics by D. Byrne YEAR: 1983 ID3G: 13
EXTT0=
EXTT1=
EXTT2=
EXTT3=
EXTT4=
EXTT5=
EXTT6=
EXTT7=
EXTT8=
PLAYORDER=
